{"asset":{"generator":"Khronos glTF Blender I/O v4.5.47","version":"2.0"},"scene":0,"scenes":[{"name":"Scene","nodes":[20]}],"nodes":[{"mesh":0,"name":"Object_4"},{"children":[0],"name":"F-16-airframe_0","rotation":[0.70710688829422,0,0,0.7071066498756409]},{"mesh":1,"name":"Object_6"},{"children":[2],"name":"F-16-canopy_1","rotation":[0.70710688829422,0,0,0.7071066498756409]},{"mesh":2,"name":"Object_8"},{"children":[4],"name":"F-16-cockpit_2","rotation":[0.70710688829422,0,0,0.7071066498756409]},{"mesh":3,"name":"Object_10"},{"children":[6],"name":"F-16-hud_3","rotation":[0.70710688829422,0,0,0.7071066498756409]},{"mesh":4,"name":"Object_12"},{"children":[8],"name":"F-16-instrGlass_4","rotation":[0.70710688829422,0,0,0.7071066498756409]},{"mesh":5,"name":"Object_14"},{"children":[10],"name":"F-16-landingOff_5","rotation":[0.70710688829422,0,0,0.7071066498756409]},{"mesh":6,"name":"Object_16"},{"children":[12],"name":"F-16-landingOn_6","rotation":[0.70710688829422,0,0,0.7071066498756409]},{"mesh":7,"name":"Object_18"},{"children":[14],"name":"F-16-landingOnLight_7","rotation":[0.70710688829422,0,0,0.7071066498756409]},{"mesh":8,"name":"Object_20"},{"children":[16],"name":"F-16-rails_8","rotation":[0.70710688829422,0,0,0.7071066498756409]},{"children":[1,3,5,7,9,11,13,15,17],"name":"GLTF_SceneRootNode","rotation":[0.70710688829422,0,0,0.7071066498756409]},{"children":[18],"name":"root"},{"children":[19],"name":"Sketchfab_model","rotation":[-0.70710688829422,0,0,0.7071066498756409]}],"materials":[{"doubleSided":true,"name":"F-16-airframe.001","normalTexture":{"index":0},"pbrMetallicRoughness":{"baseColorTexture":{"index":1},"metallicRoughnessTexture":{"index":2}}},{"alphaMode":"BLEND","doubleSided":true,"name":"Glass.001","pbrMetallicRoughness":{"baseColorFactor":[1,0.9043954014778137,0.7217275500297546,0.43695303797721863],"roughnessFactor":0}},{"doubleSided":true,"name":"F-16-hud.001","pbrMetallicRoughness":{"baseColorFactor":[0.009359709918498993,0.800000011920929,0.008280419744551182,1],"metallicFactor":0,"roughnessFactor":0}},{"doubleSided":true,"emissiveFactor":[1,1,1],"name":"F-16-landingLights.001","pbrMetallicRoughness":{"metallicFactor":0,"roughnessFactor":0}}],"meshes":[{"name":"Object_0.001","primitives":[{"attributes":{"POSITION":0,"NORMAL":1,"TEXCOORD_0":2,"TEXCOORD_1":3,"TEXCOORD_2":4,"TEXCOORD_3":5},"indices":6,"material":0}]},{"name":"Object_1.001","primitives":[{"attributes":{"POSITION":7,"NORMAL":8,"TEXCOORD_0":9},"indices":10,"material":1}]},{"name":"Object_2.001","primitives":[{"attributes":{"POSITION":11,"NORMAL":12,"TEXCOORD_0":13,"TEXCOORD_1":14,"TEXCOORD_2":15,"TEXCOORD_3":16},"indices":17,"material":0}]},{"name":"Object_3.001","primitives":[{"attributes":{"POSITION":18,"NORMAL":19,"TEXCOORD_0":20},"indices":21,"material":2}]},{"name":"Object_4.001","primitives":[{"attributes":{"POSITION":22,"NORMAL":23,"TEXCOORD_0":24},"indices":25,"material":1}]},{"name":"Object_5.001","primitives":[{"attributes":{"POSITION":26,"NORMAL":27,"TEXCOORD_0":28,"TEXCOORD_1":29,"TEXCOORD_2":30,"TEXCOORD_3":31},"indices":32,"material":0}]},{"name":"Object_6.001","primitives":[{"attributes":{"POSITION":33,"NORMAL":34,"TEXCOORD_0":35,"TEXCOORD_1":36,"TEXCOORD_2":37,"TEXCOORD_3":38},"indices":39,"material":0}]},{"name":"Object_7.001","primitives":[{"attributes":{"POSITION":40,"NORMAL":41,"TEXCOORD_0":42},"indices":43,"material":3}]},{"name":"Object_8.001","primitives":[{"attributes":{"POSITION":44,"NORMAL":45,"TEXCOORD_0":46,"TEXCOORD_1":47,"TEXCOORD_2":48,"TEXCOORD_3":49},"indices":50,"material":0}]}],"textures":[{"sampler":0,"source":0},{"sampler":0,"source":1},{"sampler":0,"source":2}],"images":[{"mimeType":"image/jpeg","name":"F-16-airframe_normal","uri":"normal.jpg"},{"mimeType":"image/jpeg","name":"F-16-airframe_baseColor","uri":"baseColor.jpg"},{"mimeType":"image/jpeg","name":"F-16-airframe_metallicRoughness","uri":"metallicRoughness.jpg"}],"accessors":[{"bufferView":0,"componentType":5126,"count":14501,"max":[101.39520263671875,46.96788024902344,12.97386646270752],"min":[-49.5247688293457,-46.967872619628906,-32.93119812011719],"type":"VEC3"},{"bufferView":1,"componentType":5126,"count":14501,"type":"VEC3"},{"bufferView":2,"componentType":5126,"count":14501,"type":"VEC2"},{"bufferView":3,"componentType":5126,"count":14501,"type":"VEC2"},{"bufferView":4,"componentType":5126,"count":14501,"type":"VEC2"},{"bufferView":5,"componentType":5126,"count":14501,"type":"VEC2"},{"bufferView":6,"componentType":5123,"count":45033,"type":"SCALAR"},{"bufferView":7,"componentType":5126,"count":216,"max":[70.94036865234375,3.967797040939331,-5.823577880859375],"min":[39.68600845336914,-3.9677999019622803,-11.991484642028809],"type":"VEC3"},{"bufferView":8,"componentType":5126,"count":216,"type":"VEC3"},{"bufferView":9,"componentType":5126,"count":216,"type":"VEC2"},{"bufferView":10,"componentType":5123,"count":1062,"type":"SCALAR"},{"bufferView":11,"componentType":5126,"count":6494,"max":[71.2474365234375,5.765279769897461,1.8858139514923096],"min":[39.245086669921875,-5.765279769897461,-11.56772518157959],"type":"VEC3"},{"bufferView":12,"componentType":5126,"count":6494,"type":"VEC3"},{"bufferView":13,"componentType":5126,"count":6494,"type":"VEC2"},{"bufferView":14,"componentType":5126,"count":6494,"type":"VEC2"},{"bufferView":15,"componentType":5126,"count":6494,"type":"VEC2"},{"bufferView":16,"componentType":5126,"count":6494,"type":"VEC2"},{"bufferView":17,"componentType":5123,"count":11457,"type":"SCALAR"},{"bufferView":18,"componentType":5126,"count":21,"max":[64.83788299560547,0.908964991569519,-7.805152893066406],"min":[62.96824264526367,-0.9089639782905579,-9.674795150756836],"type":"VEC3"},{"bufferView":19,"componentType":5126,"count":21,"type":"VEC3"},{"bufferView":20,"componentType":5126,"count":21,"type":"VEC2"},{"bufferView":21,"componentType":5123,"count":27,"type":"SCALAR"},{"bufferView":22,"componentType":5126,"count":306,"max":[-3.471997022628784,45.55026626586914,0.061420999467372894],"min":[-43.084110260009766,-45.55026626586914,-32.61346435546875],"type":"VEC3"},{"bufferView":23,"componentType":5126,"count":306,"type":"VEC3"},{"bufferView":24,"componentType":5126,"count":306,"type":"VEC2"},{"bufferView":25,"componentType":5123,"count":612,"type":"SCALAR"},{"bufferView":26,"componentType":5126,"count":139,"max":[47.973567962646484,7.19832181930542,8.736425399780273],"min":[6.917841911315918,-7.19832181930542,4.114745140075684],"type":"VEC3"},{"bufferView":27,"componentType":5126,"count":139,"type":"VEC3"},{"bufferView":28,"componentType":5126,"count":139,"type":"VEC2"},{"bufferView":29,"componentType":5126,"count":139,"type":"VEC2"},{"bufferView":30,"componentType":5126,"count":139,"type":"VEC2"},{"bufferView":31,"componentType":5126,"count":139,"type":"VEC2"},{"bufferView":32,"componentType":5123,"count":588,"type":"SCALAR"},{"bufferView":33,"componentType":5126,"count":14543,"max":[49.923797607421875,12.441591262817383,18.87464714050293],"min":[4.146493911743164,-12.441591262817383,4.055777072906494],"type":"VEC3"},{"bufferView":34,"componentType":5126,"count":14543,"type":"VEC3"},{"bufferView":35,"componentType":5126,"count":14543,"type":"VEC2"},{"bufferView":36,"componentType":5126,"count":14543,"type":"VEC2"},{"bufferView":37,"componentType":5126,"count":14543,"type":"VEC2"},{"bufferView":38,"componentType":5126,"count":14543,"type":"VEC2"},{"bufferView":39,"componentType":5123,"count":29841,"type":"SCALAR"},{"bufferView":40,"componentType":5126,"count":44,"max":[48.017391204833984,2.8826050758361816,12.761543273925781],"min":[47.899375915527344,1.492171049118042,9.225790977478027],"type":"VEC3"},{"bufferView":41,"componentType":5126,"count":44,"type":"VEC3"},{"bufferView":42,"componentType":5126,"count":44,"type":"VEC2"},{"bufferView":43,"componentType":5123,"count":84,"type":"SCALAR"},{"bufferView":44,"componentType":5126,"count":986,"max":[23.35975456237793,40.687522888183594,3.8842709064483643],"min":[-9.077910423278809,-40.687522888183594,-0.609266996383667],"type":"VEC3"},{"bufferView":45,"componentType":5126,"count":986,"type":"VEC3"},{"bufferView":46,"componentType":5126,"count":986,"type":"VEC2"},{"bufferView":47,"componentType":5126,"count":986,"type":"VEC2"},{"bufferView":48,"componentType":5126,"count":986,"type":"VEC2"},{"bufferView":49,"componentType":5126,"count":986,"type":"VEC2"},{"bufferView":50,"componentType":5123,"count":2112,"type":"SCALAR"}],"bufferViews":[{"buffer":0,"byteLength":174012,"byteOffset":0,"target":34962},{"buffer":0,"byteLength":174012,"byteOffset":174012,"target":34962},{"buffer":0,"byteLength":116008,"byteOffset":348024,"target":34962},{"buffer":0,"byteLength":116008,"byteOffset":464032,"target":34962},{"buffer":0,"byteLength":116008,"byteOffset":580040,"target":34962},{"buffer":0,"byteLength":116008,"byteOffset":696048,"target":34962},{"buffer":0,"byteLength":90066,"byteOffset":812056,"target":34963},{"buffer":0,"byteLength":2592,"byteOffset":902124,"target":34962},{"buffer":0,"byteLength":2592,"byteOffset":904716,"target":34962},{"buffer":0,"byteLength":1728,"byteOffset":907308,"target":34962},{"buffer":0,"byteLength":2124,"byteOffset":909036,"target":34963},{"buffer":0,"byteLength":77928,"byteOffset":911160,"target":34962},{"buffer":0,"byteLength":77928,"byteOffset":989088,"target":34962},{"buffer":0,"byteLength":51952,"byteOffset":1067016,"target":34962},{"buffer":0,"byteLength":51952,"byteOffset":1118968,"target":34962},{"buffer":0,"byteLength":51952,"byteOffset":1170920,"target":34962},{"buffer":0,"byteLength":51952,"byteOffset":1222872,"target":34962},{"buffer":0,"byteLength":22914,"byteOffset":1274824,"target":34963},{"buffer":0,"byteLength":252,"byteOffset":1297740,"target":34962},{"buffer":0,"byteLength":252,"byteOffset":1297992,"target":34962},{"buffer":0,"byteLength":168,"byteOffset":1298244,"target":34962},{"buffer":0,"byteLength":54,"byteOffset":1298412,"target":34963},{"buffer":0,"byteLength":3672,"byteOffset":1298468,"target":34962},{"buffer":0,"byteLength":3672,"byteOffset":1302140,"target":34962},{"buffer":0,"byteLength":2448,"byteOffset":1305812,"target":34962},{"buffer":0,"byteLength":1224,"byteOffset":1308260,"target":34963},{"buffer":0,"byteLength":1668,"byteOffset":1309484,"target":34962},{"buffer":0,"byteLength":1668,"byteOffset":1311152,"target":34962},{"buffer":0,"byteLength":1112,"byteOffset":1312820,"target":34962},{"buffer":0,"byteLength":1112,"byteOffset":1313932,"target":34962},{"buffer":0,"byteLength":1112,"byteOffset":1315044,"target":34962},{"buffer":0,"byteLength":1112,"byteOffset":1316156,"target":34962},{"buffer":0,"byteLength":1176,"byteOffset":1317268,"target":34963},{"buffer":0,"byteLength":174516,"byteOffset":1318444,"target":34962},{"buffer":0,"byteLength":174516,"byteOffset":1492960,"target":34962},{"buffer":0,"byteLength":116344,"byteOffset":1667476,"target":34962},{"buffer":0,"byteLength":116344,"byteOffset":1783820,"target":34962},{"buffer":0,"byteLength":116344,"byteOffset":1900164,"target":34962},{"buffer":0,"byteLength":116344,"byteOffset":2016508,"target":34962},{"buffer":0,"byteLength":59682,"byteOffset":2132852,"target":34963},{"buffer":0,"byteLength":528,"byteOffset":2192536,"target":34962},{"buffer":0,"byteLength":528,"byteOffset":2193064,"target":34962},{"buffer":0,"byteLength":352,"byteOffset":2193592,"target":34962},{"buffer":0,"byteLength":168,"byteOffset":2193944,"target":34963},{"buffer":0,"byteLength":11832,"byteOffset":2194112,"target":34962},{"buffer":0,"byteLength":11832,"byteOffset":2205944,"target":34962},{"buffer":0,"byteLength":7888,"byteOffset":2217776,"target":34962},{"buffer":0,"byteLength":7888,"byteOffset":2225664,"target":34962},{"buffer":0,"byteLength":7888,"byteOffset":2233552,"target":34962},{"buffer":0,"byteLength":7888,"byteOffset":2241440,"target":34962},{"buffer":0,"byteLength":4224,"byteOffset":2249328,"target":34963}],"samplers":[{"magFilter":9729,"minFilter":9987}],"buffers":[{"byteLength":2253552,"uri":"F16.bin"}]}